<svg xmlns="http://www.w3.org/2000/svg" width="26" height="24" viewBox="0 0 26 24">
    <g fill="#ee4540" fill-rule="evenodd">
        <g fill="#ee4540" fill-rule="nonzero">
            <g>
                <g>
                    <g>
                        <g>
                            <g>
                                <path d="M25.957 7.157C25.577 3.009 22.621 0 18.921 0c-2.466 0-4.723 1.318-5.993 3.428C11.67 1.29 9.505 0 7.08 0 3.38 0 .422 3.009.043 7.156c-.03.183-.153 1.147.221 2.72.54 2.267 1.785 4.33 3.6 5.963L12.922 24l9.214-8.16c1.815-1.634 3.06-3.696 3.6-5.964.374-1.572.25-2.536.221-2.72zm-1.195 2.491c-.492 2.071-1.633 3.958-3.295 5.453l-8.539 7.564-8.392-7.562C2.871 13.605 1.73 11.72 1.238 9.648.884 8.16 1.029 7.319 1.03 7.314l.007-.05C1.362 3.63 3.903.993 7.08.993c2.344 0 4.407 1.43 5.386 3.73l.46 1.084.461-1.083c.964-2.266 3.136-3.73 5.535-3.73 3.176 0 5.717 2.637 6.048 6.317.001.008.147.85-.207 2.337z" transform="translate(-1146 -110) translate(0 60) translate(1146 50)"/>
                            </g>
                        </g>
                    </g>
                </g>
            </g>
        </g>
    </g>
</svg>
