<svg xmlns="http://www.w3.org/2000/svg" width="22" height="22" viewBox="0 0 22 22">
    <g fill="none" fill-rule="evenodd">
        <g fill="#FFF" fill-rule="nonzero">
            <g>
                <g>
                    <path d="M12.857 19H9.43C9.192 19 9 18.804 9 18.562c0-.241.192-.437.429-.437h3.428c.709 0 1.286-.589 1.286-1.313v-4.375c0-.241.192-.437.428-.437.237 0 .429.196.429.438v4.374C15 18.018 14.04 19 12.857 19zM21.545 10h-9.09c-.251 0-.455-.224-.455-.5s.204-.5.455-.5h9.09c.251 0 .455.224.455.5s-.204.5-.455.5zM7.2 22c-.198 0-.391-.034-.574-.1l-5.391-1.83C.497 19.82 0 19.12 0 18.333v-16.5C0 .823.807 0 1.8 0c.2 0 .394.034.575.1l5.39 1.83C8.503 2.18 9 2.878 9 3.668v16.5C9 21.177 8.193 22 7.2 22zM1.8.917c-.497 0-.9.411-.9.916v16.5c0 .393.248.741.62.868l5.4 1.833c.59.213 1.18-.268 1.18-.867v-16.5c0-.394-.248-.742-.62-.867L2.08.967c-.092-.034-.186-.05-.28-.05z" transform="translate(-1175 -3160) translate(1155 3146) translate(20 14)"/>
                    <path d="M14.552 7c-.248 0-.449-.196-.449-.438V2.188c0-.723-.603-1.312-1.344-1.312H2.449C2.2.875 2 .679 2 .437 2 .197 2.2 0 2.448 0h10.31C13.996 0 15 .982 15 2.188v4.374c0 .242-.2.438-.448.438zM17.5 14c-.128 0-.256-.044-.354-.13-.195-.173-.195-.455 0-.628L20.793 10 17.146 6.76c-.195-.174-.195-.456 0-.629s.512-.173.707 0l4 3.556c.196.174.196.455 0 .629l-4 3.556c-.097.085-.225.129-.353.129z" transform="translate(-1175 -3160) translate(1155 3146) translate(20 14)"/>
                </g>
            </g>
        </g>
    </g>
</svg>
