<svg xmlns="http://www.w3.org/2000/svg" width="144" height="60" viewBox="0 0 144 60">
    <g fill="none" fill-rule="evenodd">
        <g fill-rule="nonzero">
            <g>
                <g>
                    <g>
                        <g transform="translate(-60 -90) translate(0 60) translate(60 30)">
                            <g fill="#EE4540">
                                <path d="M23.79 18.787h34.83c.258-.004.497.129.626.347.13.22.13.49 0 .708-.13.219-.368.352-.625.348-2.225 0-4.028 1.779-4.028 3.974 0 2.195-1.803 3.974-4.028 3.974H23.79c-2.617 0-4.738-2.093-4.738-4.676 0-2.582 2.121-4.675 4.738-4.675z"/>
                                <path d="M42.035 38.892c.393 0 .711-.314.711-.702 0-.387-.318-.701-.71-.701H23.79c-7.852 0-14.217-6.28-14.217-14.027 0-7.747 6.365-14.027 14.217-14.027h43.36c2.225 0 4.028-1.779 4.028-3.974 0-2.195 1.803-3.974 4.028-3.974.257.004.496-.129.625-.347.13-.22.13-.49 0-.708-.13-.219-.368-.352-.625-.348H23.79C10.705.084.096 10.551.096 23.462S10.705 46.84 23.791 46.84h10.188c2.225 0 4.028-1.78 4.028-3.974 0-2.195 1.804-3.974 4.028-3.974z"/>
                            </g>
                            <ellipse cx="43.563" cy="43.883" fill="#231F20" rx="3.543" ry="3.533" transform="rotate(-76.053 43.563 43.883)"/>
                            <g fill="#231F20" transform="translate(59 28)">
                                <rect width="4.714" height="4.793" x="47.195" y=".157" rx="2.357"/>
                                <g>
                                    <rect width="4.714" height="19.173" x="18.913" y=".157" rx="2.357"/>
                                    <path d="M51.437 9.744h-3.77c-.125 0-.245.05-.334.14-.088.09-.138.212-.138.34v14.499c0 1.324-1.055 2.397-2.357 2.397-1.301 0-2.356-1.073-2.356-2.397v-.12c0-.127-.05-.249-.138-.339-.089-.09-.209-.14-.334-.14h-3.77c-.126 0-.245.05-.334.14-.088.09-.138.212-.138.34v.119c0 .1.002.2.006.3.177 3.896 3.376 6.938 7.211 6.857 3.835-.081 6.907-3.257 6.924-7.157v-14.5c0-.265-.211-.48-.472-.48zM65.578 4.95h-3.77c-.126 0-.245-.05-.334-.14-.088-.09-.138-.212-.138-.339V.755c0-.33-.263-.598-.588-.598H57.21c-.324 0-.587.268-.588.598v17.978c0 .33.264.598.588.598h3.538c.325 0 .588-.268.588-.598v-8.51c0-.127.05-.249.138-.339.088-.09.208-.14.333-.14h3.771c.26 0 .472-.215.472-.48V5.43c0-.265-.211-.48-.472-.48zM35.411 19.331L35.402 19.331 35.399 19.331zM7.13 4.95H5.243c-.125 0-.245-.05-.334-.14-.088-.09-.138-.212-.138-.339V.755c0-.33-.263-.598-.588-.598H.647C.322.157.059.425.059.755v17.978c0 .33.263.597.588.598h3.537c.325 0 .588-.268.588-.598v.118c0 .127.05.25.138.34.089.09.209.14.334.14h1.885c2.552.039 4.926-1.323 6.213-3.564 1.287-2.24 1.287-5.012 0-7.253C12.055 6.273 9.681 4.91 7.13 4.95zm0 9.587c-1.303 0-2.358-1.073-2.358-2.396 0-1.324 1.055-2.397 2.357-2.397 1.302 0 2.357 1.073 2.357 2.397-.001 1.323-1.056 2.395-2.357 2.396zM77.834 4.95c-3.863.06-6.964 3.262-6.964 7.19 0 3.93 3.1 7.131 6.964 7.19h1.885c0-.264.211-.479.472-.479.26 0 .47.215.47.48h3.772c.26 0 .471-.215.471-.48v-6.71c0-3.971-3.166-7.19-7.07-7.19zm0 9.587c-1.302 0-2.357-1.073-2.357-2.396 0-1.324 1.055-2.397 2.357-2.397 1.301 0 2.357 1.073 2.357 2.397-.002 1.323-1.056 2.395-2.357 2.396zM42.482 12.14c0-3.97-3.163-7.19-7.068-7.191-3.904-.002-7.071 3.214-7.075 7.184-.003 3.97 3.159 7.192 7.063 7.197.168 0 .304-.14.304-.311v-3.583c0-.083.032-.162.09-.22.057-.059.135-.092.216-.092l5.291.012c.651 0 1.179-.536 1.179-1.198v-1.797zm-5.185-.599h-3.771c-.26 0-.472-.214-.472-.479 0-1.324 1.055-2.397 2.357-2.397 1.302 0 2.357 1.073 2.357 2.397 0 .265-.211.48-.471.48z"/>
                                </g>
                            </g>
                        </g>
                    </g>
                </g>
            </g>
        </g>
    </g>
</svg>
