<svg xmlns="http://www.w3.org/2000/svg" width="15" height="14" viewBox="0 0 15 14">
    <g fill="none" fill-rule="evenodd">
        <g fill="#F4A940" fill-rule="nonzero">
            <g>
                <g>
                    <path d="M74.98 7.29c-.05-.147-.18-.252-.336-.276l-4.68-.65-2.106-4.138c-.07-.139-.215-.226-.372-.226s-.302.087-.373.229l-2.078 4.15-4.68.68c-.156.024-.286.13-.335.277-.05.147-.006.31.108.415l3.396 3.217-.785 4.557c-.028.153.037.306.166.397.07.05.157.078.243.078.068 0 .132-.015.194-.048l4.178-2.164 4.19 2.14c.061.03.126.045.19.045.229 0 .416-.184.416-.406 0-.033-.003-.064-.012-.094l-.81-4.529L74.87 7.71c.12-.108.16-.27.11-.418z" transform="translate(-765 -379) translate(166 316) translate(539 61)"/>
                </g>
            </g>
        </g>
    </g>
</svg>
