<svg xmlns="http://www.w3.org/2000/svg" width="17" height="20" viewBox="0 0 17 20">
    <g fill="none" fill-rule="evenodd">
        <g fill="#747578" fill-rule="nonzero">
            <g>
                <g>
                    <g>
                        <g>
                            <g>
                                <g>
                                    <path d="M11.5 8c-.276 0-.5.193-.5.43v8.14c0 .237.224.43.5.43s.5-.193.5-.43V8.43c0-.237-.224-.43-.5-.43zM5.5 8c-.276 0-.5.193-.5.43v8.14c0 .237.224.43.5.43s.5-.193.5-.43V8.43C6 8.194 5.776 8 5.5 8z" transform="translate(-1272 -1076) translate(735 1012) translate(0 49) translate(520) translate(17 15)"/>
                                    <path d="M1.392 5.954v11.54c0 .682.262 1.323.72 1.782.454.461 1.088.723 1.75.724h9.275c.663-.001 1.297-.263 1.752-.724.457-.46.719-1.1.719-1.782V5.954c.909-.23 1.498-1.07 1.376-1.96-.122-.892-.916-1.558-1.857-1.558h-2.51V1.85c.003-.492-.2-.965-.565-1.313-.365-.347-.86-.54-1.376-.537H6.324c-.516-.004-1.011.19-1.376.537-.365.348-.568.82-.566 1.313v.586h-2.51c-.94 0-1.734.666-1.856 1.557-.122.892.467 1.73 1.376 1.961zm11.745 13.11H3.863c-.838 0-1.49-.689-1.49-1.57V5.995h12.254v11.5c0 .88-.652 1.568-1.49 1.568zM5.363 1.85c-.003-.244.097-.478.278-.65.18-.173.427-.267.683-.263h4.352c.256-.004.502.09.683.262.181.172.281.407.278.651v.586H5.363V1.85zm-3.49 1.522h13.254c.488 0 .883.378.883.844 0 .465-.395.843-.883.843H1.873c-.488 0-.883-.378-.883-.843 0-.466.395-.844.883-.844z" transform="translate(-1272 -1076) translate(735 1012) translate(0 49) translate(520) translate(17 15)"/>
                                    <path d="M8.5 8c-.276 0-.5.193-.5.43v8.14c0 .237.224.43.5.43s.5-.193.5-.43V8.43C9 8.194 8.776 8 8.5 8z" transform="translate(-1272 -1076) translate(735 1012) translate(0 49) translate(520) translate(17 15)"/>
                                </g>
                            </g>
                        </g>
                    </g>
                </g>
            </g>
        </g>
    </g>
</svg>
