<svg xmlns="http://www.w3.org/2000/svg" width="20" height="13" viewBox="0 0 20 13">
    <g fill="none" fill-rule="evenodd">
        <g fill="#fff" fill-rule="nonzero">
            <g>
                <g>
                    <g>
                        <g>
                            <path d="M19.926 6.236C19.768 5.981 15.983 0 10 0 4.866 0 .29 5.947.098 6.2c-.13.173-.13.426 0 .6C.291 7.053 4.866 13 10 13c5.134 0 9.71-5.947 9.902-6.2.12-.16.131-.391.024-.564zM9.989 12C5.89 12 1.99 7.683 1 6.5 1.989 5.317 5.883 1 9.99 1c4.797 0 8.183 4.311 9.01 5.475C18.045 7.62 14.124 12 9.99 12z" transform="translate(-625 -524) translate(435 380) translate(175 125) translate(15 19)"/>
                            <path d="M9.5 3C7.57 3 6 4.57 6 6.5S7.57 10 9.5 10 13 8.43 13 6.5 11.43 3 9.5 3zm0 6.125c-1.447 0-2.625-1.178-2.625-2.625S8.053 3.875 9.5 3.875s2.625 1.178 2.625 2.625S10.947 9.125 9.5 9.125z" transform="translate(-625 -524) translate(435 380) translate(175 125) translate(15 19)"/>
                        </g>
                    </g>
                </g>
            </g>
        </g>
    </g>
</svg>
