<svg xmlns="http://www.w3.org/2000/svg" width="18" height="24" viewBox="0 0 18 24">
    <g fill="none" fill-rule="evenodd">
        <g fill="#000" fill-rule="nonzero">
            <g>
                <g>
                    <g>
                        <g>
                            <g>
                                <path d="M17.436 6.116h-3.447v-1.38C13.989 2.12 11.818 0 9.139 0 6.463 0 4.292 2.12 4.292 4.736v1.38H.559C.25 6.116 0 6.36 0 6.662v14.61C0 22.778 1.251 23.999 2.793 24h12.414C16.749 24 18 22.778 18 21.272V6.662c-.003-.303-.255-.545-.564-.546zM5.402 4.73c0-2.013 1.671-3.644 3.732-3.644s3.732 1.631 3.732 3.644v1.38H5.402V4.73zm11.475 16.542c-.003.903-.751 1.634-1.676 1.637H2.788c-.925-.003-1.673-.734-1.676-1.637V7.207h3.173v2.22c0 .302.25.546.559.546.308 0 .558-.244.558-.545v-2.22h7.47v2.22c0 .301.25.545.558.545.309 0 .559-.244.559-.545v-2.22h2.888v14.064z" transform="translate(-1212 -110) translate(0 60) translate(1146 50) translate(66)"/>
                            </g>
                        </g>
                    </g>
                </g>
            </g>
        </g>
    </g>
</svg>
