<svg xmlns="http://www.w3.org/2000/svg" width="15" height="14" viewBox="0 0 15 14">
    <g fill="none" fill-rule="evenodd">
        <g fill="#F4A940" fill-rule="nonzero">
            <g>
                <g>
                    <g>
                        <path d="M14.98 6.29c-.05-.147-.18-.252-.336-.276l-4.68-.65-2.106-4.138C7.788 1.087 7.643 1 7.486 1s-.302.087-.373.229l-2.078 4.15-4.68.68c-.156.024-.286.13-.335.277-.05.147-.006.31.108.415l3.396 3.217-.785 4.557c-.028.153.037.306.166.397.07.05.157.078.243.078.068 0 .132-.015.194-.048l4.178-2.164 4.19 2.14c.061.03.126.045.19.045.229 0 .416-.184.416-.406 0-.033-.003-.064-.012-.094l-.81-4.529L14.87 6.71c.12-.108.16-.27.11-.418zm-4.218 3.224c-.099.093-.142.228-.117.36l.705 3.952-3.64-1.857c-.08-.042-.153-3.257-.221-9.645l1.829 3.593c.061.12.178.202.314.223l4.064.566-2.934 2.808z" transform="translate(-548 -729) translate(435 380) translate(113 348)"/>
                    </g>
                </g>
            </g>
        </g>
    </g>
</svg>
